# xmcd
#
# Track frame offsets:
# 150
# 16903
# 33494
# 50870
# 63946
# 77322
# 88875
# 103192
# 119769
# 130757
# 147885
# 160162
# 174634
# 186751
#
# Disc length: 2730 seconds
#
#
# Revision: 0
# Processed by: cddbd v1.5.2PL0 Copyright (c) Steve Scherf et al.
# Submitted via: FreeRIP 2.951 
#
DISCID=bf0aa80e
DTITLE=Various Artist - Shout to the Lord
DYEAR=1900
DGENRE=Gospel
TTITLE0=Jesus
TTITLE1=One Day at a Time
TTITLE2=Higher Ground
TTITLE3=What a Friend we Have in Jesus
TTITLE4=I Saw the Light
TTITLE5=Standing on the Promises
TTITLE6=I Believe
TTITLE7=Take my Hand Precious Lord
TTITLE8=The Lord's Prayer
TTITLE9=Softly and Tenderly
TTITLE10=Why Me Lord
TTITLE11=Just a Closer Walk
TTITLE12=You'll Never Walk Alone
TTITLE13=Amazing Grace
EXTD=A Great Worship CD
EXTT0=
EXTT1=
EXTT2=
EXTT3=
EXTT4=
EXTT5=
EXTT6=
EXTT7=
EXTT8=
EXTT9=
EXTT10=
EXTT11=
EXTT12=
EXTT13=
PLAYORDER=
